<svg width="693" height="360" viewBox="0 0 693 360" fill="none" xmlns="http://www.w3.org/2000/svg">
<g clip-path="url(#clip0_309_124)">
<g filter="url(#filter0_dd_309_124)">
<path d="M363.5 551C491.906 551 596 446.906 596 318.5C596 190.094 491.906 86 363.5 86C235.094 86 131 190.094 131 318.5C131 446.906 235.094 551 363.5 551Z" fill="black"/>
<path d="M363.5 551C491.906 551 596 446.906 596 318.5C596 190.094 491.906 86 363.5 86C235.094 86 131 190.094 131 318.5C131 446.906 235.094 551 363.5 551Z" fill="url(#paint0_linear_309_124)" fill-opacity="0.3"/>
</g>
<path d="M325.057 279.636V179H391.607V279.636H380.557V190.135H336.232V279.636H325.057Z" fill="white"/>
<path d="M364.047 251.163C366.755 251.163 368.95 248.968 368.95 246.26C368.95 243.552 366.755 241.357 364.047 241.357C361.339 241.357 359.144 243.552 359.144 246.26C359.144 248.968 361.339 251.163 364.047 251.163Z" fill="white"/>
<path d="M282.269 278.667L435.981 277.5" stroke="white" stroke-width="5"/>
<path d="M375.5 197.5H341.5V277.5H375.5V197.5Z" stroke="white" stroke-width="3"/>
</g>
<defs>
<filter id="filter0_dd_309_124" x="0" y="0" width="693" height="665" filterUnits="userSpaceOnUse" color-interpolation-filters="sRGB">
<feFlood flood-opacity="0" result="BackgroundImageFix"/>
<feColorMatrix in="SourceAlpha" type="matrix" values="0 0 0 0 0 0 0 0 0 0 0 0 0 0 0 0 0 0 127 0" result="hardAlpha"/>
<feOffset dx="47" dy="10"/>
<feGaussianBlur stdDeviation="25"/>
<feComposite in2="hardAlpha" operator="out"/>
<feColorMatrix type="matrix" values="0 0 0 0 0.377049 0 0 0 0 0.546235 0 0 0 0 0.981285 0 0 0 1 0"/>
<feBlend mode="normal" in2="BackgroundImageFix" result="effect1_dropShadow_309_124"/>
<feColorMatrix in="SourceAlpha" type="matrix" values="0 0 0 0 0 0 0 0 0 0 0 0 0 0 0 0 0 0 127 0" result="hardAlpha"/>
<feOffset dx="-31" dy="14"/>
<feGaussianBlur stdDeviation="50"/>
<feComposite in2="hardAlpha" operator="out"/>
<feColorMatrix type="matrix" values="0 0 0 0 0.0833334 0 0 0 0 1 0 0 0 0 1 0 0 0 1 0"/>
<feBlend mode="normal" in2="effect1_dropShadow_309_124" result="effect2_dropShadow_309_124"/>
<feBlend mode="normal" in="SourceGraphic" in2="effect2_dropShadow_309_124" result="shape"/>
</filter>
<linearGradient id="paint0_linear_309_124" x1="131" y1="86" x2="596" y2="551" gradientUnits="userSpaceOnUse">
<stop stop-color="white"/>
<stop offset="1" stop-color="white" stop-opacity="0"/>
</linearGradient>
<clipPath id="clip0_309_124">
<rect width="693" height="360" fill="white"/>
</clipPath>
</defs>
</svg>
